<svg width="23" height="20" viewBox="0 0 23 20" fill="none" xmlns="http://www.w3.org/2000/svg">
<path d="M20.7 0H2.3C1.0235 0 0 0.988889 0 2.22222V15.5556C0 16.7778 1.0235 17.7778 2.3 17.7778H6.9V20H16.1V17.7778H20.7C21.965 17.7778 23 16.7778 23 15.5556V2.22222C23 0.988889 21.965 0 20.7 0ZM20.7 15.5556H2.3V2.22222H20.7V15.5556Z" fill="black"/>
<path d="M13.8001 5.83325H4.6001V7.49992H13.8001V5.83325Z" fill="black"/>
<path d="M16.675 7.49989H18.4V5.83322H16.675V4.44434H14.95V8.88878H16.675V7.49989Z" fill="black"/>
<path d="M18.4 10.2778H9.19995V11.9445H18.4V10.2778Z" fill="black"/>
<path d="M6.3251 13.3334H8.0501V8.88892H6.3251V10.2778H4.6001V11.9445H6.3251V13.3334Z" fill="black"/>
</svg>
